<?xml version="1.0" encoding="utf-8"?>
<!-- Generator: Adobe Illustrator 21.0.2, SVG Export Plug-In . SVG Version: 6.00 Build 0)  -->
<svg version="1.1" id="Layer_1" xmlns="http://www.w3.org/2000/svg" xmlns:xlink="http://www.w3.org/1999/xlink" x="0px" y="0px"
	 viewBox="0 0 512 512" style="enable-background:new 0 0 512 512;" xml:space="preserve">
<g>
	<g>
		<path d="M490.666687,12.8000011H21.333334c-4.7146664,0-8.5333328,3.8400002-8.5333328,8.5333328V490.666687
			c0,4.7146606,3.8400002,8.5333252,8.5333328,8.5333252H490.666687c4.7146606,0,8.5333252-3.8400269,8.5333252-8.5333252V21.333334
			C499.2000122,16.6186676,495.3813477,12.8000011,490.666687,12.8000011z M492.1333618,492.1333618H19.8666668V19.8666668
			h472.2666931V492.1333618z"/>
		<path d="M169.3287964,260.3449097h82.3158264v82.3049316c0,2.4034729,1.9575653,4.3501587,4.3501434,4.3501587
			c2.3925934,0,4.3501434-1.9575806,4.3501434-4.3501587v-82.3049316h82.3049316c2.4034729,0,4.3501587-1.95755,4.3501587-4.3501434
			c0-2.3925781-1.9575806-4.3501434-4.3501587-4.3501434h-82.3049316v-82.3158264
			c0-2.4034576-1.95755-4.3501587-4.3501434-4.3501587c-2.3925781,0-4.3501434,1.9575806-4.3501434,4.3501587v82.3158264
			h-82.3158264c-2.4034576,0-4.3501587,1.9575653-4.3501587,4.3501434
			C164.9786377,258.3873596,166.9362183,260.3449097,169.3287964,260.3449097z"/>
	</g>
</g>
</svg>
