<?xml version="1.0" encoding="utf-8"?>
<!-- Generator: Adobe Illustrator 21.0.2, SVG Export Plug-In . SVG Version: 6.00 Build 0)  -->
<svg version="1.1" id="Capa_1" xmlns="http://www.w3.org/2000/svg" xmlns:xlink="http://www.w3.org/1999/xlink" x="0px" y="0px"
	 viewBox="0 0 512 512" style="enable-background:new 0 0 512 512;" xml:space="preserve">
<style type="text/css">
	.st0{fill:#242424;}
</style>
<g>
	<g>
		<g>
			<path class="st0" d="M512,256C512,114.6177216,397.3814392,0,256,0C114.6177216,0,0,114.6177216,0,256
				c0,141.3814392,114.6177216,256,256,256C397.3814392,512,512,397.3814392,512,256z M23.2725754,256
				c0-128.5354309,104.1920013-232.727417,232.727417-232.727417S488.7274475,127.4645767,488.7274475,256
				S384.5354309,488.7274475,256,488.7274475S23.2725754,384.5354309,23.2725754,256z"/>
		</g>
		<g>
			<path class="st0" d="M319.2893066,118H192.7106934C151.5145264,118,118,151.5145264,118,192.7106934v126.580719
				C118,360.4854736,151.5145264,394,192.7106934,394h126.580719C360.4854736,394,394,360.4854736,394,319.2914124v-126.580719
				C394,151.5145264,360.4854736,118,319.2893066,118z M377.8197021,319.2914124
				c0,32.2721558-26.256134,58.5282898-58.5303955,58.5282898H192.7106934
				c-32.2742615,0-58.5303955-26.256134-58.5303955-58.5282898v-126.580719
				c0-32.2742615,26.256134-58.5303955,58.5303955-58.5303955h126.580719c32.2721558,0,58.5282898,26.256134,58.5282898,58.5303955
				V319.2914124z"/>
			<path class="st0" d="M256,180.5333557c-41.6130981,0-75.4666443,33.8535461-75.4666443,75.4666443
				S214.3869019,331.4666443,256,331.4666443S331.4666443,297.6130981,331.4666443,256S297.6130981,180.5333557,256,180.5333557z
				 M256,315.2863464c-32.6890869,0-59.2863464-26.5951538-59.2863464-59.2863464
				c0-32.6890869,26.5972595-59.2863464,59.2863464-59.2863464c32.6911926,0,59.2863464,26.5972595,59.2863464,59.2863464
				C315.2863464,288.6911926,288.6911926,315.2863464,256,315.2863464z"/>
			<path class="st0" d="M255.9989471,233.6994476c-12.2973633,0-22.2994995,10.0042419-22.2994995,22.2994995
				c0,12.2973785,10.0021362,22.30159,22.2994995,22.30159c12.2973785,0,22.30159-10.0042114,22.30159-22.30159
				C278.3005371,243.7015839,268.2963257,233.6994476,255.9989471,233.6994476z M255.9989471,262.1181641
				c-3.3733521,0-6.1192017-2.7458496-6.1192017-6.1192169c0-3.3754578,2.7458496-6.1192017,6.1192017-6.1192017
				c3.3754425,0,6.1212921,2.7437439,6.1212921,6.1192017C262.1202393,259.3723145,259.3743896,262.1181641,255.9989471,262.1181641
				z"/>
		</g>
	</g>
</g>
</svg>
