<?xml version="1.0" encoding="utf-8"?>
<!-- Generator: Adobe Illustrator 21.0.2, SVG Export Plug-In . SVG Version: 6.00 Build 0)  -->
<svg version="1.1" id="Layer_1" xmlns="http://www.w3.org/2000/svg" xmlns:xlink="http://www.w3.org/1999/xlink" x="0px" y="0px"
	 viewBox="0 0 303.0676575 59.9806519" style="enable-background:new 0 0 303.0676575 59.9806519;" xml:space="preserve">
<style type="text/css">
	.st0{fill:#242424;}
</style>
<path class="st0" d="M224.7371979,50.9996643V0h1.0006409v50.9996643H224.7371979L224.7371979,50.9996643z M236.7375488,4.9995422
	h-13.9998169L224.8629456,0h13.9998169L236.7375488,4.9995422L236.7375488,4.9995422z M236.7375488,12.0003357h-13.9998169
	l2.1252136-5.0013123h13.9998169L236.7375488,12.0003357L236.7375488,12.0003357z M236.7375488,18.9993591h-13.9998169
	l2.1252136-4.9995422h13.9998169L236.7375488,18.9993591L236.7375488,18.9993591z M236.7375488,26.0001221h-13.9998169
	l2.1252136-5.0012817h13.9998169L236.7375488,26.0001221L236.7375488,26.0001221z M236.7375488,32.9991455h-13.9998169
	l2.1252136-4.9995422h13.9998169L236.7375488,32.9991455L236.7375488,32.9991455z M236.7375488,39.9999084h-13.9998169
	l2.1252136-4.9995422h13.9998169L236.7375488,39.9999084L236.7375488,39.9999084z M236.7375488,46.9989624h-13.9998169
	l2.1252136-4.9995728h13.9998169L236.7375488,46.9989624L236.7375488,46.9989624z M222.7377319,55.0003052l1.9994659-5.0012817
	h1.0006409l0.9988251,5.0012817H222.7377319L222.7377319,55.0003052z"/>
</svg>
